<?xml version="1.0" encoding="utf-8"?>
<!-- Generator: Adobe Illustrator 26.3.1, SVG Export Plug-In . SVG Version: 6.00 Build 0)  -->
<svg version="1.1" id="Calque_2_00000174583212641454572340000013430817489102624939_"
	 xmlns="http://www.w3.org/2000/svg" xmlns:xlink="http://www.w3.org/1999/xlink" x="0px" y="0px" viewBox="0 0 47 34"
	 style="enable-background:new 0 0 47 34;" xml:space="preserve">
<style type="text/css">
	.st0{fill:#E5537B;}
</style>
<g id="Capa_1">
	<path class="st0" d="M0.1,17.4c0.1,0.1,0.1,0.2,0.2,0.3l16,16c0.4,0.4,1,0.4,1.4,0c0.4-0.4,0.4-1,0-1.4L3.4,18H46c0.6,0,1-0.4,1-1
		s-0.4-1-1-1H3.4L17.7,1.7c0.4-0.4,0.4-1,0-1.4C17.5,0.1,17.2,0,17,0s-0.5,0.1-0.7,0.3l-16,16c-0.1,0.1-0.2,0.2-0.2,0.3
		C0,16.9,0,17.1,0.1,17.4z"/>
</g>
</svg>
